<svg width="57" height="57" viewBox="0 0 57 57" fill="none" xmlns="http://www.w3.org/2000/svg">
<circle cx="28.5" cy="28.5" r="28" stroke="white"/>
<path d="M43.3333 18.3467C42 19 40.6933 19.2654 39.3333 19.6667C37.8387 17.98 35.6227 17.8867 33.4933 18.684C31.364 19.4814 29.9693 21.4307 30 23.6667V25C25.6733 25.1107 21.82 23.14 19.3333 19.6667C19.3333 19.6667 13.7573 29.5774 24.6667 34.3334C22.1707 35.996 19.6813 37.1174 16.6667 37C21.0773 39.404 25.884 40.2307 30.0453 39.0227C34.8187 37.636 38.7413 34.0587 40.2467 28.7C40.6957 27.0702 40.9187 25.3865 40.9093 23.696C40.9067 23.364 42.9227 20 43.3333 18.3454V18.3467Z" stroke="white" stroke-width="2" stroke-linecap="round" stroke-linejoin="round"/>
</svg>
