<svg width="32" height="32" viewBox="0 0 32 32" fill="none" xmlns="http://www.w3.org/2000/svg">
<path d="M19.9371 1.77009C17.6627 1.77014 15.8036 2.49524 14.5131 3.81802C13.2231 5.14041 12.5167 7.04441 12.5167 9.37343V12.3448H8.9C8.68341 12.3448 8.47569 12.4308 8.32253 12.584C8.16938 12.7371 8.08334 12.9448 8.08334 13.1614V18.2948C8.08334 18.5114 8.16938 18.7191 8.32253 18.8722C8.47569 19.0254 8.68341 19.1114 8.9 19.1114H12.5167V29.2548C12.5167 29.4714 12.6027 29.6791 12.7559 29.8322C12.909 29.9854 13.1167 30.0714 13.3333 30.0714H18.6373C18.8539 30.0714 19.0617 29.9854 19.2148 29.8322C19.368 29.6791 19.454 29.4714 19.454 29.2548V19.1114H23.0586C23.0586 19.1114 23.0586 19.1114 23.0587 19.1114C23.2569 19.1115 23.4484 19.0395 23.5975 18.9088C23.7465 18.778 23.843 18.5975 23.8687 18.4009L23.8688 18.4006L24.5314 13.2676C24.5465 13.1523 24.5368 13.0352 24.503 12.924C24.4692 12.8127 24.4121 12.71 24.3354 12.6226C24.2587 12.5353 24.1642 12.4653 24.0583 12.4174C23.9524 12.3695 23.8376 12.3447 23.7213 12.3448C23.7213 12.3448 23.7213 12.3448 23.7213 12.3448H19.454V9.88276C19.454 9.23305 19.523 8.83088 19.7476 8.58147C19.9687 8.33602 20.3785 8.19943 21.1813 8.19943H23.9C24.1166 8.19943 24.3243 8.11339 24.4775 7.96023C24.6306 7.80708 24.7167 7.59935 24.7167 7.38276V2.7895C24.7167 2.78948 24.7167 2.78945 24.7167 2.78943C24.7167 2.59118 24.6447 2.39967 24.514 2.25063C24.3833 2.10156 24.2028 2.00514 24.0062 1.97937L24.0062 1.97932L24.0025 1.97893C22.6522 1.83568 21.295 1.76597 19.9371 1.77009ZM19.9371 1.77009C19.9372 1.77009 19.9373 1.77009 19.9373 1.77009V1.92009L19.9369 1.7701C19.937 1.7701 19.937 1.77009 19.9371 1.77009ZM18.636 13.9794H18.6357C18.4194 13.979 18.2121 13.8928 18.0593 13.7397C17.9065 13.5865 17.8207 13.3791 17.8207 13.1628V9.88276C17.8207 9.1968 17.9034 8.36469 18.3747 7.70292C18.8534 7.03069 19.7086 6.56611 21.1799 6.56609L18.636 13.9794ZM18.636 13.9794H22.7933L22.3402 17.4794H18.6373C18.4207 17.4794 18.213 17.5655 18.0599 17.7186C17.9067 17.8718 17.8207 18.0795 17.8207 18.2961V28.4368H14.15V18.2961C14.15 18.0795 14.064 17.8718 13.9108 17.7186C13.7577 17.5655 13.5499 17.4794 13.3333 17.4794H9.718V13.9794H13.3333C13.5499 13.9794 13.7577 13.8934 13.9108 13.7402C14.064 13.5871 14.15 13.3794 14.15 13.1628V9.37343C14.15 7.48606 14.6963 5.99724 15.6823 4.98088C16.6678 3.96509 18.1099 3.40343 19.9373 3.40343C21.1972 3.40343 22.3422 3.468 23.0833 3.52864V6.56486L21.18 6.56609L18.636 13.9794Z" fill="white" stroke="white" stroke-width="0.3"/>
</svg>
